<svg width="370" height="387" viewBox="0 0 370 387" fill="none" xmlns="http://www.w3.org/2000/svg">
<mask id="mask0" mask-type="alpha" maskUnits="userSpaceOnUse" x="0" y="0" width="370" height="387">
<path d="M370 0H0V387H370V0Z" fill="white"/>
<path d="M276.158 185.568L142.806 242.344L173.069 254.513C179.076 256.924 181.987 263.736 179.571 269.729C177.732 274.291 173.335 277.064 168.691 277.064C167.234 277.064 165.754 276.791 164.32 276.216L107.696 253.492C102.939 251.583 99.9352 246.787 100.393 241.598C100.778 237.245 103.658 233.504 107.688 231.79L266.964 164.048C272.92 161.516 279.807 164.279 282.346 170.221C284.884 176.164 282.115 183.034 276.158 185.568ZM90.2884 210.459C85.7319 210.459 81.3985 207.792 79.4985 203.346C76.9596 197.404 79.7298 190.533 85.6857 188L218.984 131.236L189.02 119.153C183.082 116.771 179.927 110.108 182.162 104.126C184.473 97.9386 191.422 94.9033 197.524 97.3518L254.148 120.076C258.906 121.984 261.91 126.783 261.45 131.971C261.065 136.324 258.185 140.064 254.156 141.778L94.8804 209.519C93.3806 210.157 91.8218 210.459 90.2884 210.459ZM205.515 343.972C284.684 334.132 345.948 266.756 345.948 185.104C345.948 87.3977 258.223 10.1333 157.068 27.4339C91.1246 38.712 39.5035 89.7124 27.6773 155.413C18.2399 207.84 34.4112 256.75 65.8121 291.785C70.2631 296.751 70.5898 304.156 66.5824 309.484C58.0176 320.873 43.4965 339.929 33.3249 352.178C29.8602 356.351 33.2362 362.61 38.636 362.029C82.581 357.3 200.181 344.635 205.515 343.972Z" fill="black"/>
</mask>
<g mask="url(#mask0)">
<path d="M276.158 185.568L266.765 163.482L266.757 163.486L276.158 185.568ZM142.806 242.344L133.404 220.262L80.0516 242.977L133.852 264.611L142.806 242.344ZM173.069 254.513L164.115 276.78L164.123 276.783L164.13 276.786L173.069 254.513ZM179.571 269.729L157.312 260.753L157.311 260.756L179.571 269.729ZM168.691 277.064V301.064H168.693L168.691 277.064ZM164.32 276.216L155.381 298.489L155.382 298.49L164.32 276.216ZM107.696 253.492L98.7557 275.765H98.7572L107.696 253.492ZM100.393 241.598L76.4863 239.487L76.4862 239.488L100.393 241.598ZM107.688 231.79L98.2948 209.704H98.2946L107.688 231.79ZM266.964 164.048L257.573 141.962L257.571 141.963L266.964 164.048ZM282.346 170.221L260.275 179.651H260.276L282.346 170.221ZM79.4985 203.346L57.4284 212.775L57.4291 212.777L79.4985 203.346ZM85.6857 188L95.08 210.085L95.0888 210.081L85.6857 188ZM218.984 131.236L228.387 153.318L281.66 130.632L227.96 108.978L218.984 131.236ZM189.02 119.153L197.996 96.8947L197.977 96.887L197.958 96.8794L189.02 119.153ZM182.162 104.126L204.644 112.524L182.162 104.126ZM197.524 97.3517L206.463 75.0783L206.461 75.0777L197.524 97.3517ZM254.148 120.076L245.21 142.349L245.211 142.35L254.148 120.076ZM261.45 131.971L237.544 129.853V129.855L261.45 131.971ZM254.156 141.778L244.763 119.692V119.693L254.156 141.778ZM94.8804 209.519L104.268 231.607L104.274 231.605L94.8804 209.519ZM205.515 343.972L208.475 367.789L205.515 343.972ZM157.068 27.4338L161.114 51.0903L157.068 27.4338ZM27.6773 155.413L51.2976 159.665H51.2977L27.6773 155.413ZM65.8121 291.785L47.9398 307.804H47.9403L65.8121 291.785ZM66.5824 309.484L47.4015 295.059L47.4008 295.06L66.5824 309.484ZM33.3249 352.178L14.8611 336.846H14.8606L33.3249 352.178ZM38.636 362.029L41.2031 385.891H41.204L38.636 362.029ZM266.757 163.486L133.404 220.262L152.207 264.425L285.56 207.65L266.757 163.486ZM133.852 264.611L164.115 276.78L182.023 232.246L151.76 220.076L133.852 264.611ZM164.13 276.786C157.859 274.269 154.751 267.105 157.312 260.753L201.829 278.705C209.224 260.367 200.294 239.579 182.009 232.24L164.13 276.786ZM157.311 260.756C159.267 255.905 163.907 253.064 168.689 253.064L168.693 301.064C182.762 301.063 196.197 292.677 201.83 278.702L157.311 260.756ZM168.691 253.064C170.244 253.064 171.802 253.358 173.257 253.942L155.382 298.49C159.706 300.225 164.224 301.064 168.691 301.064V253.064ZM173.258 253.943L116.634 231.219L98.7572 275.765L155.381 298.489L173.258 253.943ZM116.636 231.219C121.597 233.211 124.782 238.253 124.3 243.709L76.4862 239.488C75.0886 255.321 84.2811 269.955 98.7557 275.765L116.636 231.219ZM124.3 243.71C123.854 248.76 120.659 252.354 117.081 253.875L98.2946 209.704C86.6577 214.654 77.7014 225.73 76.4863 239.487L124.3 243.71ZM117.081 253.875L276.357 186.134L257.571 141.963L98.2948 209.704L117.081 253.875ZM276.355 186.135C270.165 188.767 262.953 185.918 260.275 179.651L304.416 160.792C296.66 142.639 275.676 134.264 257.573 141.962L276.355 186.135ZM260.276 179.651C257.586 173.357 260.543 166.128 266.765 163.482L285.552 207.653C303.686 199.94 312.183 178.971 304.415 160.792L260.276 179.651ZM90.2884 186.459C94.9755 186.459 99.5498 189.193 101.568 193.915L57.4291 212.777C63.2471 226.392 76.4882 234.459 90.2884 234.459V186.459ZM101.569 193.917C104.258 200.211 101.301 207.439 95.08 210.085L76.2915 165.915C58.159 173.628 49.6614 194.596 57.4284 212.775L101.569 193.917ZM95.0888 210.081L228.387 153.318L209.581 109.155L76.2827 165.918L95.0888 210.081ZM227.96 108.978L197.996 96.8947L180.044 141.412L210.009 153.495L227.96 108.978ZM197.958 96.8794C203.414 99.069 207.228 105.608 204.644 112.524L159.679 95.727C152.626 114.608 162.75 134.472 180.082 141.427L197.958 96.8794ZM204.644 112.524C202.211 119.037 194.925 122.169 188.588 119.626L206.461 75.0777C187.919 67.6379 166.734 76.8397 159.679 95.7274L204.644 112.524ZM188.586 119.625L245.21 142.349L263.087 97.8022L206.463 75.0783L188.586 119.625ZM245.211 142.35C240.246 140.357 237.06 135.313 237.544 129.853L285.357 134.089C286.76 118.253 277.566 103.612 263.086 97.8017L245.211 142.35ZM237.544 129.855C237.991 124.807 241.185 121.214 244.763 119.692L263.549 163.864C275.184 158.915 284.14 147.841 285.357 134.087L237.544 129.855ZM244.763 119.693L85.4873 187.434L104.274 231.605L263.549 163.864L244.763 119.693ZM85.4927 187.431C87.0139 186.785 88.6529 186.459 90.2884 186.459V234.459C94.9907 234.459 99.7474 233.528 104.268 231.607L85.4927 187.431ZM208.475 367.789C299.469 356.479 369.948 279.059 369.948 185.104H321.948C321.948 254.453 269.898 311.785 202.555 320.156L208.475 367.789ZM369.948 185.104C369.948 72.6956 269.003 -16.059 153.022 3.77728L161.114 51.0903C247.444 36.3253 321.948 102.1 321.948 185.104H369.948ZM153.022 3.77726C77.1697 16.7501 17.682 75.4672 4.05686 151.161L51.2977 159.665C61.3251 103.958 105.08 60.6737 161.114 51.0903L153.022 3.77726ZM4.05689 151.161C-6.74621 211.175 11.8119 267.494 47.9398 307.804L83.6844 275.767C57.0106 246.006 43.226 204.505 51.2976 159.665L4.05689 151.161ZM47.9403 307.804C44.7616 304.258 44.5033 298.912 47.4015 295.059L85.7632 323.91C96.6764 309.399 95.7647 289.245 83.6839 275.767L47.9403 307.804ZM47.4008 295.06C38.8255 306.463 24.6197 325.094 14.8611 336.846L51.7887 367.511C62.3734 354.764 77.2097 335.284 85.7639 323.909L47.4008 295.06ZM14.8606 336.846C-2.48424 357.735 14.5478 388.759 41.2031 385.891L36.0688 338.167C51.9245 336.461 62.2046 354.967 51.7892 367.51L14.8606 336.846ZM41.204 385.891C84.9107 381.187 202.88 368.484 208.475 367.789L202.555 320.156C202.556 320.155 202.542 320.157 202.51 320.161C202.479 320.165 202.437 320.17 202.384 320.176C202.276 320.189 202.137 320.205 201.961 320.225C201.61 320.265 201.148 320.317 200.576 320.381C199.434 320.509 197.893 320.679 195.993 320.888C192.196 321.306 187.004 321.872 180.776 322.549C168.323 323.902 151.756 325.695 133.978 327.614C98.4225 331.454 58.0397 335.802 36.068 338.167L41.204 385.891Z" fill="black"/>
<path d="M276.158 185.568L142.806 242.344L173.069 254.513C179.076 256.924 181.987 263.736 179.571 269.729C177.732 274.291 173.335 277.064 168.691 277.064C167.234 277.064 165.754 276.791 164.32 276.216L107.696 253.492C102.939 251.583 99.9352 246.787 100.393 241.598C100.778 237.245 103.658 233.504 107.688 231.79L266.964 164.048C272.92 161.516 279.807 164.279 282.346 170.221C284.884 176.164 282.115 183.034 276.158 185.568ZM90.2884 210.459C85.7319 210.459 81.3985 207.792 79.4985 203.346C76.9596 197.404 79.7298 190.533 85.6857 188L218.984 131.236L189.02 119.153C183.082 116.771 179.927 110.108 182.162 104.126C184.473 97.9386 191.422 94.9033 197.524 97.3518L254.148 120.076C258.906 121.984 261.91 126.783 261.45 131.971C261.065 136.324 258.185 140.064 254.156 141.778L94.8804 209.519C93.3806 210.157 91.8218 210.459 90.2884 210.459ZM205.515 343.972C284.684 334.132 345.948 266.756 345.948 185.104C345.948 87.3977 258.223 10.1333 157.068 27.4339C91.1246 38.712 39.5035 89.7124 27.6773 155.413C18.2399 207.84 34.4112 256.75 65.8121 291.785C70.2631 296.751 70.5898 304.156 66.5824 309.484C58.0176 320.873 43.4965 339.929 33.3249 352.178C29.8602 356.351 33.2362 362.61 38.636 362.029C82.581 357.3 200.181 344.635 205.515 343.972Z" fill="#FE5F55"/>
</g>
</svg>
