<svg width="256" height="256" viewBox="0 0 256 256" fill="none" xmlns="http://www.w3.org/2000/svg">
<g clip-path="url(#clip0)">
<rect width="256" height="256" rx="128" fill="#D65555"/>
<path fill-rule="evenodd" clip-rule="evenodd" d="M68.4781 163.893C68.1656 164.025 67.8617 164.171 67.5674 164.331C64.8021 165.839 62.8792 168.577 62.5988 171.715C62.2513 175.613 64.3784 179.232 67.83 180.912C68.0432 181.016 68.2615 181.112 68.4845 181.201L114.12 199.324C114.182 199.348 114.244 199.372 114.306 199.395L114.317 199.399C115.411 199.806 116.535 200 117.643 200C121.385 200 124.929 197.788 126.411 194.15C128.309 189.492 126.128 184.213 121.534 182.168C121.415 182.115 121.294 182.064 121.171 182.015L96.7809 172.31L204.254 127.03C209.055 125.009 211.287 119.53 209.241 114.79C207.224 110.118 201.8 107.911 197.048 109.784C196.988 109.808 196.924 109.834 196.865 109.859L196.844 109.867L68.4781 163.893ZM186.522 92.1065C186.863 91.9629 187.194 91.8015 187.513 91.6236C190.234 90.1075 192.123 87.3921 192.4 84.2852C192.735 80.5546 190.799 77.0762 187.604 75.3127C187.256 75.1203 186.893 74.9483 186.515 74.7987L140.88 56.6756C135.963 54.7242 130.362 57.1442 128.499 62.0782C126.769 66.6608 129.047 71.7446 133.471 73.8221C133.652 73.9073 133.837 73.9874 134.026 74.0623L158.175 83.699L50.7456 128.97C45.9456 130.99 43.713 136.469 45.7591 141.208C47.2904 144.754 50.7829 146.881 54.4551 146.881C55.6211 146.881 56.8053 146.667 57.9506 146.215L57.9586 146.212C58.0237 146.186 58.0887 146.16 58.1536 146.132" fill="white"/>
</g>
<defs>
<clipPath id="clip0">
<rect width="256" height="256" rx="128" fill="white"/>
</clipPath>
</defs>
</svg>
