<svg width="256" height="256" viewBox="0 0 256 256" fill="none" xmlns="http://www.w3.org/2000/svg">
<rect width="256" height="256" rx="128" fill="#D65555"/>
<path fill-rule="evenodd" clip-rule="evenodd" d="M97.4962 144.146C97.3441 144.209 97.1963 144.279 97.053 144.356C95.7075 145.08 94.7718 146.395 94.6354 147.901C94.4663 149.772 95.5014 151.509 97.1808 152.315C97.2846 152.365 97.3908 152.412 97.4993 152.454L119.705 161.154C119.735 161.165 119.765 161.177 119.795 161.188L119.801 161.19C120.333 161.385 120.88 161.478 121.419 161.478C123.24 161.478 124.964 160.417 125.686 158.67C126.609 156.434 125.548 153.9 123.312 152.918C123.254 152.893 123.195 152.868 123.136 152.845L111.268 148.186L163.563 126.451C165.899 125.481 166.985 122.85 165.989 120.575C165.008 118.333 162.369 117.273 160.056 118.172C160.027 118.184 159.996 118.196 159.967 118.208L159.957 118.212L97.4962 144.146ZM154.935 109.686C155.101 109.617 155.262 109.54 155.417 109.455C156.741 108.727 157.66 107.423 157.795 105.932C157.958 104.141 157.016 102.471 155.461 101.625C155.292 101.533 155.115 101.45 154.931 101.378L132.726 92.6786C130.333 91.7419 127.608 92.9036 126.702 95.272C125.86 97.4718 126.968 99.9121 129.121 100.909C129.209 100.95 129.299 100.989 129.391 101.025L141.142 105.651L88.8678 127.382C86.5322 128.351 85.4458 130.982 86.4415 133.257C87.1866 134.959 88.8859 135.98 90.6728 135.98C91.2402 135.98 91.8164 135.877 92.3737 135.66L92.3776 135.658C92.4092 135.646 92.4409 135.633 92.4724 135.62M81.0743 167.114C68.7602 153.701 62.4185 134.977 66.1195 114.906C70.7572 89.754 91.0007 70.2295 116.861 65.9119C156.529 59.2886 190.931 88.8679 190.931 126.273C190.931 157.532 166.906 183.326 135.86 187.093C134.014 187.317 97.8903 191.118 77.5784 193.253C77.285 193.284 76.995 193.314 76.7083 193.344C75.2357 193.499 73.8542 193.644 72.5842 193.778C71.8201 193.858 71.0958 193.934 70.417 194.005C68.2994 194.228 66.9755 191.832 68.3342 190.234C68.8085 189.677 69.307 189.082 69.8228 188.46C70.6216 187.497 71.4621 186.467 72.3188 185.406C72.5031 185.178 72.6881 184.949 72.8736 184.718C75.9519 180.889 79.1687 176.755 81.3763 173.89C82.9479 171.85 82.8198 169.015 81.0743 167.114ZM61.398 184.45C64.5914 180.696 68.9958 175.112 72.3212 170.829C59.5525 155.643 53.1742 135.117 57.1983 113.294C62.5373 84.3379 85.8159 61.9892 115.353 57.0577C160.467 49.5253 200 83.2249 200 126.273C200 162.239 172.385 191.707 136.963 196.005C134.774 196.271 88.5183 201.133 71.3737 202.935C61.527 203.969 54.5247 192.531 61.398 184.45Z" fill="white"/>
</svg>
